<svg xmlns="http://www.w3.org/2000/svg" viewBox="0 0 1084.05 491.35"><defs><style>.cls-1{fill:#dbf916;}</style></defs><title>scFichier 20</title><g id="Calque_2" data-name="Calque 2"><g id="Capa_1" data-name="Capa 1"><path class="cls-1" d="M695.11,68.72a68.72,68.72,0,1,1,68.72,68.71A68.72,68.72,0,0,1,695.11,68.72ZM796.85,184.25A74.34,74.34,0,0,1,811,144a87.58,87.58,0,0,0-18-1.87h-58.3A87.62,87.62,0,0,0,716.74,144a74.56,74.56,0,0,1,14.18,43.34,75,75,0,0,1,65.93-3.06Zm11.63,6.17A78.46,78.46,0,0,1,845,248.69a63.28,63.28,0,1,0-36.52-58.27ZM767,320.05a63.31,63.31,0,1,0-63.32-63.31A63.31,63.31,0,0,0,767,320.05Zm26.86,4.31H740.14a81.17,81.17,0,0,0-81.07,81.07v65.71l.18,1,4.52,1.41c42.66,13.32,79.72,17.78,110.22,17.78,59.57,0,94.12-17,96.24-18.08l4.23-2.14h.45v-65.7A81.15,81.15,0,0,0,793.86,324.36ZM898.62,259H845.3a78,78,0,0,1-24.08,54.35A96.33,96.33,0,0,1,890,405.53v20.25c52.63-1.94,83-16.85,85-17.85l4.24-2.16h.45V340.06A81.16,81.16,0,0,0,898.62,259Zm14.25-132.29A78.49,78.49,0,0,1,949.38,185a63.28,63.28,0,1,0-36.51-58.28ZM1003,195.3h-53.3a78.08,78.08,0,0,1-24.08,54.35,96.32,96.32,0,0,1,68.8,92.18v20.24c52.62-1.93,83-16.84,85-17.85l4.22-2.15h.46V276.35A81.14,81.14,0,0,0,1003,195.3ZM655.92,254.68a62.9,62.9,0,0,0,33.67-9.77,78.34,78.34,0,0,1,29.45-50c.06-1.19.17-2.36.17-3.56a63.31,63.31,0,1,0-63.29,63.31Zm56.85,58.67A78.09,78.09,0,0,1,688.7,259.3c-2-.15-3.93-.3-5.94-.3H629.05A81.16,81.16,0,0,0,548,340.06v65.71l.16,1,4.53,1.41c34.22,10.7,64.76,15.61,91.29,17.15V405.52A96.33,96.33,0,0,1,712.77,313.35Z"/><path class="cls-1" d="M107.93,279.66a63.31,63.31,0,1,0-63.32-63.31A63.32,63.32,0,0,0,107.93,279.66ZM134.79,284H81.07A81.16,81.16,0,0,0,0,365v65.71l.17,1,4.52,1.4C47.35,446.5,84.41,451,114.92,451c59.57,0,94.11-17,96.24-18.07l4.23-2.14h.45V365A81.15,81.15,0,0,0,134.79,284Z"/></g></g></svg>