<?xml version="1.0" encoding="utf-8"?>
<!-- Generator: Adobe Illustrator 22.1.0, SVG Export Plug-In . SVG Version: 6.00 Build 0)  -->
<svg version="1.1" id="Calque_1" xmlns="http://www.w3.org/2000/svg" xmlns:xlink="http://www.w3.org/1999/xlink" x="0px" y="0px"
	 viewBox="0 0 192 192" style="enable-background:new 0 0 192 192;" xml:space="preserve">
<style type="text/css">
	.st0{fill:#FFFFFF;}
</style>
<g>
	<g>
		<path class="st0" d="M192.2,192.2c-64,0-128,0-192,0c0-64,0-128,0-192c64,0,128,0,192,0C192.2,64.3,192.2,128.2,192.2,192.2z
			 M37,96.2c0,9.1,0,18.2,0,27.4c0,4.8,2.1,8.2,6.1,10.5c2.8,1.6,5.7,3.2,8.5,4.9c12.6,7.3,25.2,14.5,37.7,21.9
			c4.8,2.8,9.2,2.7,14,0c15.2-8.9,30.5-17.7,45.9-26.5c4.4-2.5,6.5-6.1,6.5-11.2c-0.1-17.4-0.1-34.9-0.1-52.3c0-1,0-2.1,0-3.1
			c-0.2-3.7-1.8-6.7-5-8.5c-7-4.2-14-8.2-21-12.2c-8.8-5.1-17.6-10.1-26.3-15.2c-2.7-1.6-5.4-2.6-8.6-2.1c-2.3,0.4-4.2,1.6-6.1,2.7
			C73.3,41,58.2,49.7,43.1,58.4c-4,2.3-6.2,5.7-6.1,10.5C37,78,37,87.1,37,96.2z"/>
		<path d="M37,96.2c0-9.1,0-18.2,0-27.4c0-4.8,2.1-8.2,6.1-10.5C58.2,49.7,73.3,41,88.4,32.3c1.9-1.1,3.8-2.3,6.1-2.7
			c3.2-0.5,5.9,0.6,8.6,2.1c8.8,5.1,17.6,10.2,26.3,15.2c7,4.1,14.1,8.1,21,12.2c3.1,1.9,4.8,4.8,5,8.5c0,1,0,2.1,0,3.1
			c0,17.4,0,34.9,0.1,52.3c0,5.1-2.1,8.6-6.5,11.2c-15.3,8.8-30.6,17.6-45.9,26.5c-4.7,2.8-9.2,2.9-14,0
			c-12.5-7.4-25.1-14.6-37.7-21.9c-2.8-1.6-5.7-3.3-8.5-4.9c-4.1-2.3-6.2-5.7-6.1-10.5C37,114.5,37,105.4,37,96.2z M71.6,85.1
			c3.1,0.2,6,0.2,8.8,0.5c1.8,0.2,3.6,1,5.3,1.7c1,0.4,1.8,1.2,1.8,2.3c0.1,3.4,0.3,6.8,0.3,10.2c0,1.8-0.5,3.6-0.8,5.4
			c-0.2,1.3,0.2,1.9,1.6,1.6c1.6-0.3,3.1-0.7,4.6-1.3c2-0.7,3.9-0.8,5.8-0.1c1.4,0.5,2.9,1,4.3,1.3c1.8,0.4,2.2-0.2,1.9-2
			c-0.3-1.3-0.6-2.6-0.6-3.9c-0.1-3.3,0.1-6.5,0-9.8c0-2.2,1.1-3.5,3.1-4.4c4.2-1.8,8.6-1.2,13.1-1.6c-0.2,0.7-0.3,1.1-0.4,1.6
			c-0.4,2.1-1.5,3.3-3.6,3.5c-2.6,0.2-5.3,0.3-7.9,0.3c-0.9,0-1.6,0.2-1.7,1.2c-0.2,1.6-0.4,3.2-0.3,4.7c0.1,3.1,0.4,6.3,0.7,9.4
			c0.3,2.9-1,4.9-3.3,6.4c-0.8,0.5-1.6,0.9-2.4,1.4c-1.2,0.9-2.5,1.7-3.6,2.8c-1.2,1.3-1.8,2.9-1.1,4.7c1,2.7,2.7,4.7,5.4,5.7
			c3.2,1.2,6.3,0.7,9.5-0.2c1.9-0.5,3-1.7,3.6-3.4c0.6-1.8,1.2-3.7,1.7-5.5c1.1-4.1,2.2-8.2,4.2-12c1.8-3.5,4.3-6.6,7.3-9.2
			c0.8-0.7,1.6-1.6,2.2-2.5c0.9-1.4,1-3,0.5-4.6c-1.2-3.8-2.4-7.6-3.6-11.4c-0.7-2-1.3-4.1-2.1-6.1c-0.8-1.8-2.2-3-4.3-3.3
			c-1.9-0.3-3.8-0.8-5.6-1.1c-4.6-0.7-9.1-0.3-13.2,2.2c-1,0.7-2.2,1.1-3.3,1.7c-2.1,1-4.2,1.1-6.3,0c-1.5-0.7-2.9-1.5-4.4-2.3
			c-2.9-1.6-6-2.3-9.2-1.9c-3,0.3-5.9,0.9-8.9,1.3c-1.5,0.3-2.8,1.1-3.5,2.5c-0.9,1.8-1.7,3.7-2.3,5.6c-1.2,3.8-2.1,7.8-3.5,11.6
			c-0.9,2.4-0.9,4.5,0.6,6.5c0.2,0.2,0.2,0.6,0.2,0.8c-0.1,0.7-0.3,1.3-0.4,1.9c-0.1,1.4,0,2.8-0.1,4.2c-0.1,0.9-0.9,1.5-1.6,1.3
			c-0.8-0.2-1.3-1.2-0.9-1.9c0.2-0.5,0.8-0.7,1.1-1.1c0.3-0.4,0.6-0.9,0.9-1.3c-0.5-0.2-1.1-0.6-1.5-0.5c-1.7,0.2-2.8,2.4-2.3,4.3
			c0.4,1.8,2.2,2.9,3.9,2.4c1.3-0.4,2.2-1.7,2.2-3.2c0-1.7,0-3.4,0-5.3c0.6,0.5,1,0.9,1.4,1.3c4.2,3.9,6.8,8.8,8.5,14.2
			c1.1,3.5,2,7,3,10.5c0.7,2.3,1.9,4,4.5,4.4c0.8,0.1,1.5,0.4,2.3,0.6c3.4,0.5,6.7,0.3,9.3-2.2c1.9-1.8,3.6-3.8,2.7-6.7
			c-0.7-2.3-2.6-3.6-4.6-4.8c-1.3-0.7-2.6-1.6-3.8-2.5c-1.4-1.1-2.1-2.5-1.9-4.3c0.3-3.3,0.5-6.7,0.7-10c0.1-1.7-0.1-3.3-0.2-5
			c-0.1-0.9-0.7-1.3-1.6-1.3c-2.2,0-4.5,0-6.7-0.1c-3.4-0.2-4.2-1-5.1-4.3C71.9,85.8,71.8,85.5,71.6,85.1z M96.3,126.3
			c-0.9,0.5-1.6,1.2-2.5,1.4c-2.2,0.6-4.5,1.2-6.7,1.6c-2,0.4-4,0.5-5.9,0.8c-0.9,0.2-1.7,0.7-1.6,1.8c0.4,4.4,2.5,8.5,7.4,10.1
			c2,0.6,3.7,0.5,5.4-0.9c0.7-0.6,1.6-1.2,2.5-1.4c0.8-0.2,1.9-0.3,2.7,0c1.1,0.4,2,1.1,3,1.8c1.2,0.8,2.4,1.2,3.8,0.8
			c4.3-1,6.8-3.7,7.9-7.8c1-3.6,0.3-4.6-3.5-4.9c-1.8-0.1-3.6-0.3-5.4-0.5C100.9,128.7,98.4,128.1,96.3,126.3z M65.5,99.6
			c-1,1.6-0.8,3.3-0.5,5c0,0.2,0.5,0.5,0.7,0.4c0.3-0.1,0.7-0.4,0.8-0.7c0.1-1.3,0.2-2.6,0.2-3.9c-1.1,1.2,0.1,2.9-1,4.2
			C65.1,103.6,65.1,101.9,65.5,99.6z"/>
		<path class="st0" d="M71.6,85.1c0.1,0.5,0.3,0.8,0.3,1.1c0.9,3.3,1.7,4.1,5.1,4.3c2.2,0.1,4.5,0.1,6.7,0.1c1,0,1.6,0.4,1.6,1.3
			c0.1,1.7,0.3,3.4,0.2,5c-0.1,3.3-0.4,6.7-0.7,10c-0.1,1.8,0.6,3.2,1.9,4.3c1.2,0.9,2.5,1.8,3.8,2.5c2,1.1,3.9,2.4,4.6,4.8
			c0.9,2.9-0.8,4.9-2.7,6.7c-2.6,2.5-5.9,2.7-9.3,2.2c-0.8-0.1-1.5-0.4-2.3-0.6c-2.6-0.4-3.9-2.1-4.5-4.4c-1-3.5-1.9-7-3-10.5
			c-1.7-5.4-4.3-10.3-8.5-14.2c-0.4-0.4-0.8-0.7-1.4-1.3c0,2,0,3.7,0,5.3c0,1.6-1,2.8-2.2,3.2c-1.7,0.5-3.5-0.6-3.9-2.4
			c-0.5-1.9,0.7-4,2.3-4.3c0.5-0.1,1,0.3,1.5,0.5c-0.3,0.4-0.6,0.9-0.9,1.3c-0.3,0.4-0.9,0.7-1.1,1.1c-0.4,0.8,0.2,1.7,0.9,1.9
			c0.8,0.2,1.6-0.4,1.6-1.3c0.1-1.4,0-2.8,0.1-4.2c0-0.7,0.3-1.3,0.4-1.9c0-0.3,0-0.6-0.2-0.8c-1.5-2.1-1.5-4.1-0.6-6.5
			c1.4-3.8,2.2-7.7,3.5-11.6c0.6-1.9,1.4-3.8,2.3-5.6c0.7-1.4,2-2.2,3.5-2.5c3-0.5,5.9-1.1,8.9-1.3c3.2-0.3,6.4,0.4,9.2,1.9
			c1.4,0.8,2.9,1.5,4.4,2.3c2.1,1.1,4.2,1,6.3,0c1.1-0.6,2.3-1,3.3-1.7c4.1-2.6,8.6-2.9,13.2-2.2c1.9,0.3,3.8,0.7,5.6,1.1
			c2,0.3,3.5,1.5,4.3,3.3c0.8,2,1.5,4,2.1,6.1c1.2,3.8,2.4,7.6,3.6,11.4c0.5,1.6,0.4,3.2-0.5,4.6c-0.6,0.9-1.4,1.8-2.2,2.5
			c-3,2.6-5.4,5.7-7.3,9.2c-2,3.8-3.1,7.9-4.2,12c-0.5,1.9-1,3.7-1.7,5.5c-0.6,1.7-1.7,2.9-3.6,3.4c-3.2,0.9-6.3,1.4-9.5,0.2
			c-2.7-1-4.5-3.1-5.4-5.7c-0.6-1.7-0.1-3.4,1.1-4.7c1-1.1,2.3-1.9,3.6-2.8c0.7-0.5,1.6-0.9,2.4-1.4c2.3-1.5,3.6-3.5,3.3-6.4
			c-0.4-3.1-0.6-6.3-0.7-9.4c-0.1-1.6,0.1-3.2,0.3-4.7c0.1-1,0.8-1.2,1.7-1.2c2.6,0,5.3-0.1,7.9-0.3c2.2-0.2,3.2-1.4,3.6-3.5
			c0.1-0.5,0.2-1,0.4-1.6c-4.4,0.5-8.9-0.1-13.1,1.6c-2,0.8-3.1,2.1-3.1,4.4c0,3.3-0.1,6.5,0,9.8c0,1.3,0.4,2.6,0.6,3.9
			c0.4,1.8-0.1,2.4-1.9,2c-1.5-0.3-2.9-0.8-4.3-1.3c-2-0.7-3.9-0.6-5.8,0.1c-1.5,0.5-3,1-4.6,1.3c-1.3,0.3-1.8-0.3-1.6-1.6
			c0.3-1.8,0.7-3.6,0.8-5.4c0-3.4-0.1-6.8-0.3-10.2c0-1.2-0.9-2-1.8-2.3c-1.7-0.7-3.5-1.4-5.3-1.7C77.6,85.2,74.7,85.2,71.6,85.1z
			 M60.7,99.3c-0.1-0.2-0.1-0.3-0.2-0.5c-0.5,0.1-1,0.1-1.4,0.3c-1.3,0.6-1.8,2.2-1.3,3.7c0.4,1.3,1.5,2,2.8,1.9
			c1.1-0.1,2.2-1.1,2.3-2.3c0.1-2,0.1-4,0.1-6c0-0.1-0.2-0.2-0.4-0.7c-0.2,0.6-0.4,1-0.4,1.3c0,1.5,0,3,0,4.4c0,1.3-0.6,2.1-1.6,2.2
			c-1.1,0.1-1.7-0.5-2.1-1.4c-0.3-0.9,0.2-1.9,1.2-2.4C60,99.7,60.3,99.5,60.7,99.3z"/>
		<path class="st0" d="M96.3,126.3c2,1.8,4.6,2.3,7.1,2.7c1.8,0.3,3.6,0.4,5.4,0.5c3.8,0.3,4.5,1.2,3.5,4.9
			c-1.1,4.1-3.7,6.8-7.9,7.8c-1.5,0.3-2.7,0-3.8-0.8c-1-0.6-1.9-1.4-3-1.8c-0.8-0.3-1.9-0.2-2.7,0c-0.9,0.3-1.7,0.8-2.5,1.4
			c-1.7,1.3-3.4,1.5-5.4,0.9c-4.8-1.5-7-5.7-7.4-10.1c-0.1-1.1,0.7-1.7,1.6-1.8c2-0.3,4-0.4,5.9-0.8c2.3-0.4,4.5-0.9,6.7-1.6
			C94.7,127.5,95.5,126.9,96.3,126.3z"/>
		<path class="st0" d="M65.5,99.6c-0.4,2.2-0.4,4,0.2,5c1-1.3-0.2-2.9,1-4.2c-0.1,1.3-0.1,2.6-0.2,3.9c0,0.3-0.5,0.6-0.8,0.7
			c-0.2,0.1-0.7-0.2-0.7-0.4C64.7,102.9,64.5,101.2,65.5,99.6z"/>
		<path d="M60.7,99.3c-0.3,0.2-0.6,0.4-0.9,0.5c-1,0.5-1.6,1.5-1.2,2.4c0.3,0.9,1,1.6,2.1,1.4c1-0.1,1.6-0.9,1.6-2.2
			c0-1.5,0-3,0-4.4c0-0.4,0.2-0.7,0.4-1.3c0.3,0.4,0.4,0.5,0.4,0.7c0,2,0,4-0.1,6c-0.1,1.2-1.1,2.2-2.3,2.3
			c-1.4,0.1-2.4-0.6-2.8-1.9c-0.5-1.5,0.1-3.1,1.3-3.7c0.4-0.2,0.9-0.2,1.4-0.3C60.6,99,60.6,99.1,60.7,99.3z"/>
	</g>
</g>
<path d="M70.5,105.1c-0.2,0.2-0.4,0.4-0.8,0.6c-3.2,2-7.3,0.6-8.3,0.3c-2.2-0.8-6.2-2.1-6.3-5c-0.1-2.1,1.8-4.3,4.6-5.4
	c0.5-0.7,0.9-1.4,1.4-2.1c0.5,1.1,1.1,1.8,1.5,2.3c0.4,0.4,0.6,0.6,1.5,1.3c0,0,1,0.9,1.9,1.8c0.8,0.8,2,2.1,3.3,4
	C69.6,103.6,70,104.3,70.5,105.1z"/>
<path d="M59.6,94.2"/>
<path d="M59.4,93.6"/>
<path d="M143.4,176.3"/>
</svg>
