<svg xmlns="http://www.w3.org/2000/svg" viewBox="0 0 513.42 538.79">
<defs><style>.cls-1{fill:#dbf916;stroke:#000000;}</style>
<g id="Calque_2" data-name="Calque 2">
    <g id="Calque_1-2" data-name="Calque 1">
        <path class="cls-1" d="M511.86,221.15l.42,61.55-12.89,17.89-1.67,16.63-20.79,4.16-32,2.08L436.59,333l-15,1.24h-15l-5.82-5L387.93,333l-22.05,11.23-4.57,8.31-17.89,11.65-3.32,7.07-10,5.41L318.89,373l-6.24,6.66-3.74,18.3-18.72,22,.83,9.15-6.65,11.23L286,455.72l-10,4.16-5.41,3.32L266.9,452l-6.66,2.92-4.15-.42L251.93,462h-18.3l-6.24-4.16-3.33,2.49-7.07-7.9,1.25-7.9-2.91-2.91-5,2.49,1.24-8.73,4.58-6.66-9.57-11.23L204.1,410l-5.41-5.82-4.57-.84-5.41,3.75-7.9,3.74-6.24,5.82-10-2.08-6.66-7.07-3.74-.83L148,410.38h-3.74l-1.25-10,1.25-8.32-2.08-10-8.32-7.48-4.57-15.39-.84-16.64,7.91-5,4.16-15.8,7.48-.42,16.22,7.49,13.31-5.41,8.73,1.67L190,319.3l93.58-.41,5.4-18.72-4.16-3.33-10.39-115.2-10-115.2L299.76,66l77.35,58.23,77.78,58.22,5.4,12.48,14.56,7.48L485.66,207l.42,17.05Z"/>
        <path class="cls-1" d="M128.4,342.59l.84,16.64,4.57,15.39,8.32,7.48,2.08,10L143,400.4l-3.33,1.67L126.74,400l-1.66,2.91-5,.41L103,397.08l-11.22-.42-43.26-1.25-6.24,3.33-7.9-.83-12.48,4.16-3.32-20.38,21.21.41,5.82-3.74H49.8l8.73-6.24,10,5.41,10,.83,10.39-6.24-4.57-7.48-7.9,4.15H69.35l-9.15-6.65-7.49.42-5.41,6.65-25.37.42-9.56-20.8L1.14,339.68l10.4-5.41,11.64-18.71L29,301.83l8.32-8.31,11.23,2.08,11.65-5.83H73.09l11.23,7.49,15,7.07,14.14,20Z"/>
        <path class="cls-1" d="M299.76,66l-35.36.42,10,115.2,10.39,115.2,4.16,3.33-5.4,18.72L190,319.3l-3.75,5.83-8.73-1.67-13.31,5.41L148,321.38l-7.48.42-4.16,15.8-7.91,5-15-18.3-14.14-20-15-7.07-11.23-7.49H60.2L48.55,295.6l-11.23-2.08L29,301.83l-1.66-14.14L34,274.39l3.32-25-1.66-26.62-2.5-13.3,2.5-13.31-5.82-12.48L18.19,172.07l5.41-8.73h90.25l-3.74-38.68,6.23-13.72L138,108.86l.83-68.63,74.86,1.67.84-40.76Z"/>
        <path class="cls-1" d="M18.61,381.69l3.32-12.06,25.37-.42,5.41-6.65,7.49-.42,9.15,6.65h7.07l7.9-4.15,4.57,7.48L78.5,378.36l-10-.83-10-5.41-8.73,6.24H45.64l-5.82,3.74Z"/>
        <path class="cls-1" d="M143,400.4l1.25,10H148l6.24-3.74,3.74.83,6.66,7.07,10,2.08,6.24-5.82,7.9-3.74,5.41-3.75,4.57.84L204.1,410l2.49,7.48,9.57,11.23-4.58,6.66-1.24,8.73,5-2.49,2.91,2.91-1.25,7.9,7.07,7.9-4.57,2.08-2.08,9.15,5.4,10.82L228.64,504l-8.74,2.91-2.08,3.75,1.67,5.4-1.67,11.65h-3.74l-6.65-.83-4.58,10.81H196.2l-4.58-5.82L193.28,521l-10-16.22-5.82,2.91-5.41.84-6.23,1.24.41-9.56-3.74-7.07.83-7.9-5-11.23-6.66-9.57H133l-5.41,5-6.65.83-4.16,5.83-2.5,7.07-12.89,12.06-10-15.81L82.24,469l-5.82-3.75-5.83-5.4L68.1,448.23l-3.33-5.82-7.07-4.58,10.82-12.89,7.07.42,6.23-4.16,5-.42,3.75-3.33-1.67-8.73,2.5-2.91.42-9.15,11.22.42,17.06,6.23,5-.41,1.66-2.91,12.89,2.08Z"/>
        <path class="cls-1" d="M91.81,396.66l-.42,9.15-2.5,2.91,1.67,8.73-3.75,3.33-5,.42-6.23,4.16-7.07-.42L57.7,437.83,45.64,427l-10-2.08-5.41-7.49.42-4.15-7.07-5.41-1.67-5.82,12.48-4.16,7.9.83,6.24-3.33Z"/>
    </g>
</g>
</svg>